<svg width="113" height="40" viewBox="0 0 113 40" fill="none" xmlns="http://www.w3.org/2000/svg">
<g clip-path="url(#clip0_14440_1220)">
<path fill-rule="evenodd" clip-rule="evenodd" d="M100.531 29.3759V23.5178H104.303C104.668 23.5178 105.396 23.6965 105.396 24.4114V26.3972C105.396 26.662 105.257 27.1915 104.701 27.1915H104.651H103.907L105.893 29.3759H104.303L102.368 27.1915H101.524V29.3759H100.531ZM101.524 24.6099V26.1986H103.808C104.006 26.1986 104.304 25.9007 104.304 25.7021V25.1064C104.304 24.9575 104.264 24.6099 103.907 24.6099H101.524Z" fill="#F1141E"/>
<path d="M93.9784 24.7093V23.5178H99.2406V24.7093H97.1555V29.3759H95.9638V24.7093H93.9784Z" fill="#F1141E"/>
<path fill-rule="evenodd" clip-rule="evenodd" d="M56.8434 29.3759H57.9852L58.4817 28.1844H61.2618L61.7582 29.3759H63.0987L60.4675 23.5178H59.3753L56.8434 29.3759ZM60.6885 26.9929L59.8716 24.9079L59.0547 26.9929H60.6885Z" fill="#F1141E"/>
<path d="M55.801 25.5036L54.7088 25.7519H54.6592V24.7093H51.8791V28.2837H54.7088V26.9929L55.7514 27.4894V28.5816C55.7514 29.1773 55.2218 29.3593 54.957 29.3759H51.5812C50.9457 29.3759 50.7869 28.9788 50.7869 28.7802V24.4114C50.7869 23.6171 51.4322 23.5178 51.8294 23.5178H54.6095C55.9599 23.5973 55.801 24.61 55.801 25.5036Z" fill="#F1141E"/>
<path d="M78.7371 25.5036L77.6444 25.7519H77.5949V24.7093H74.8146V28.2837H77.6444V26.9929L78.687 27.4894V28.5816C78.687 29.1773 78.1574 29.3593 77.8927 29.3759H74.5168C73.8813 29.3759 73.7225 28.9788 73.7225 28.7802V24.4114C73.7225 23.6171 74.3682 23.5178 74.7651 23.5178H77.5454C78.8959 23.5973 78.7371 24.61 78.7371 25.5036Z" fill="#F1141E"/>
<path d="M33.51 29.3759V23.5178H38.1767V24.5604H34.5525V25.8014H36.6873V26.8936H34.5525V28.2837H38.276V29.3759H33.51Z" fill="#F1141E"/>
<path d="M80.7727 29.3759V23.5178H85.4394V24.5604H81.8152V25.8014H83.9498V26.8936H81.8152V28.2837H85.5384V29.3759H80.7727Z" fill="#F1141E"/>
<path d="M107.482 29.3759V23.5178H112.149V24.5604H108.524V25.8014H110.659V26.8936H108.524V28.2837H112.248V29.3759H107.482Z" fill="#F1141E"/>
<path d="M88.3682 29.3759H87.3257V23.5178H88.12L91.6946 27.2908L91.7441 23.5178H92.7866V29.3759H91.8933L88.3682 25.6526V29.3759Z" fill="#F1141E"/>
<path fill-rule="evenodd" clip-rule="evenodd" d="M40.0638 23.5178V29.3759H43.7376C45.6241 29.227 46.9645 24.7589 43.7376 23.5178H40.0638ZM41.2553 24.7093V28.2837H42.5957C44.4325 28.2837 45.4751 25.2057 42.5957 24.7093H41.2553Z" fill="#F1141E"/>
<path d="M4.71628 18.9007L0 19.6454L5.26238 20.4397L9.18432 15.5248L13.0566 26.3475L14.9432 8.7235L19.2126 39.9999L23.0353 18.8511L24.7729 21.234L112.148 20.1418L25.7161 18.6029L22.1914 15.0284L19.4112 27.9858L15.1914 0.929199L12.1134 21.6312L9.48222 13.3405L4.71628 18.9007Z" fill="#F1141E"/>
<path d="M27.3543 2.46841V0.0854492H34.9003V2.46841H32.8649V6.73788H39.0706V2.46841H37.0847V0.0854492H44.5812V2.46841H42.7443V13.6882H44.5812V16.0712H37.0847V13.6882H39.0706V9.22017H32.8649V13.6882H34.9003V16.0712H27.3543V13.6882H29.2408V2.46841H27.3543Z" fill="#F1141E"/>
<path fill-rule="evenodd" clip-rule="evenodd" d="M45.0279 13.6882V16.0712H51.7796V13.6882H49.8932L50.7867 11.4046H56.496L57.3399 13.6882H55.4534V16.0712H62.7015V13.6882H61.3612L55.9499 0.0854492H51.7796L46.418 13.6882H45.0279ZM55.5512 8.94709L53.6165 3.65988L51.6817 8.94709H55.5512Z" fill="#F1141E"/>
<path fill-rule="evenodd" clip-rule="evenodd" d="M74.12 13.6882V16.0712H80.8717V13.6882H78.9854L79.8787 11.4046H85.5879L86.4324 13.6882H84.5454V16.0712H91.7936V13.6882H90.4533L85.0419 0.0854492H80.8717L75.5105 13.6882H74.12ZM84.6432 8.94709L82.7086 3.65988L80.774 8.94709H84.6432Z" fill="#F1141E"/>
<path d="M60.1197 2.46841V0.0854492H67.1695V2.46841H65.5308L68.0629 6.63858L70.5949 2.46841H69.1549V0.0854492H75.6089V2.46841H74.5168L69.6514 9.91515V13.7378H71.9352V16.0712H63.7937V13.7378H65.9778V9.91515L61.2119 2.46841H60.1197Z" fill="#F1141E"/>
<path d="M90.7518 5.84428V0.0854492H104.851V5.84428H101.624V2.5677H99.6381V13.6882H101.822V16.0215H93.6807V13.6882H95.9645V2.5677H93.8794V5.84428H90.7518Z" fill="#F1141E"/>
<path d="M25.369 29.3759V23.5178H26.3618L28.3973 26.9929L30.4327 23.5178H31.3264V29.3759H30.3335V25.5532L28.4966 28.6312H28.1987L26.3618 25.6526V29.3759H25.369Z" fill="#F1141E"/>
<path d="M48.6021 23.5178H47.5099V29.3759H48.6021V23.5178Z" fill="#F1141E"/>
<path fill-rule="evenodd" clip-rule="evenodd" d="M65.4819 23.5178H64.3892V28.383V29.3759H65.4819H68.9568V28.383H65.4819V23.5178Z" fill="#F1141E"/>
</g>
<defs>
<clipPath id="clip0_14440_1220">
<rect width="112.381" height="40" fill="white"/>
</clipPath>
</defs>
</svg>
