<svg width="20" height="20" viewBox="0 0 20 20" fill="none" xmlns="http://www.w3.org/2000/svg">
<path d="M6.38885 1.59717V3.993" stroke="#616161" stroke-width="1.5" stroke-miterlimit="10" stroke-linecap="round" stroke-linejoin="round"/>
<path d="M12.7778 1.59717V3.993" stroke="#616161" stroke-width="1.5" stroke-miterlimit="10" stroke-linecap="round" stroke-linejoin="round"/>
<path d="M16.7708 6.78798V10.8849C16.0601 10.3178 15.1576 9.98242 14.1753 9.98242C13.193 9.98242 12.2746 10.3258 11.5559 10.9088C10.5896 11.6675 9.98262 12.8574 9.98262 14.1751C9.98262 14.9578 10.2062 15.7085 10.5896 16.3314C10.8851 16.8185 11.2684 17.2418 11.7236 17.5692H6.38887C3.59373 17.5692 2.39581 15.972 2.39581 13.5762V6.78798C2.39581 4.39214 3.59373 2.79492 6.38887 2.79492H12.7778C15.5729 2.79492 16.7708 4.39214 16.7708 6.78798Z" stroke="#616161" stroke-width="1.5" stroke-miterlimit="10" stroke-linecap="round" stroke-linejoin="round"/>
<path d="M5.59027 8.78467H10.3819" stroke="#616161" stroke-width="1.5" stroke-miterlimit="10" stroke-linecap="round" stroke-linejoin="round"/>
<path d="M5.59027 12.7778H7.68263" stroke="#616161" stroke-width="1.5" stroke-miterlimit="10" stroke-linecap="round" stroke-linejoin="round"/>
<path d="M18.368 14.1751C18.368 14.9578 18.1444 15.7085 17.7611 16.3314C17.5375 16.7147 17.258 17.0501 16.9305 17.3217C16.1958 17.9765 15.2375 18.3678 14.1753 18.3678C13.2569 18.3678 12.4104 18.0724 11.7236 17.5692C11.2684 17.2418 10.885 16.8185 10.5896 16.3314C10.2062 15.7085 9.9826 14.9578 9.9826 14.1751C9.9826 12.8574 10.5896 11.6675 11.5559 10.9088C12.2746 10.3258 13.193 9.98242 14.1753 9.98242C15.1576 9.98242 16.06 10.3178 16.7708 10.8849C17.7451 11.6515 18.368 12.8414 18.368 14.1751Z" stroke="#4CAF50" stroke-width="1.5" stroke-miterlimit="10" stroke-linecap="round" stroke-linejoin="round"/>
<path d="M14.1754 16.1718V14.1752M16.1719 14.1752H14.1754M14.1754 12.1787V14.1752M12.1788 14.1752H14.1754" stroke="#4CAF50" stroke-width="1.5" stroke-linecap="round" stroke-linejoin="round"/>
</svg>
