<svg width="36" height="20" viewBox="0 0 36 20" fill="none" xmlns="http://www.w3.org/2000/svg">
<path fill-rule="evenodd" clip-rule="evenodd" d="M0 9.99087V19.9768L0.284132 19.9703L0.568264 19.9638L0.574086 9.98436L0.579908 0.00494071H0.289954H0V9.99087ZM3.73236 0.0221044L3.55645 0.0299444L3.54101 5.8431C3.53252 9.04034 3.52556 12.6725 3.52556 13.9145V16.1727L3.87927 16.1663L4.23299 16.1599L4.23881 8.08241L4.24466 0.00494071L4.07645 0.00960254C3.98395 0.0121771 3.8291 0.0178134 3.73236 0.0221044ZM5.01 8.08858V16.1722L5.66525 16.166L6.32049 16.1599L6.32631 8.08241L6.33216 0.00494071H5.67107H5.01V8.08858ZM7.50921 0.0219883L7.39903 0.0306862V8.08948V16.1483H7.52335C7.59175 16.1483 7.69613 16.1549 7.7553 16.163L7.86292 16.1778V8.09136V0.00494071L7.74115 0.00911555C7.67416 0.0114118 7.56979 0.0172102 7.50921 0.0219883ZM8.77715 0.0220817L8.61284 0.0300138L8.5974 5.85667C8.58891 9.06135 8.58195 12.6934 8.58195 13.928V16.1727L8.93566 16.1663L9.28938 16.1599L9.30098 13.8172C9.30736 12.5288 9.30993 8.89391 9.30668 5.73977L9.30079 0.00494071L9.12113 0.00955582C9.02232 0.012084 8.86752 0.0177212 8.77715 0.0220817ZM10.02 8.08849V16.1721L10.8608 16.166L11.7016 16.1599L11.7074 8.08241L11.7133 0.00494071H10.8666H10.02V8.08849ZM12.4786 8.0867V16.1731L12.7164 16.1665L12.9541 16.1599L12.9596 11.8457C12.9662 6.74942 12.939 0.063275 12.9116 0.0358591C12.901 0.025236 12.7992 0.0128964 12.6855 0.0084431L12.4786 0.000325606V8.0867ZM13.7775 8.0861V16.1722L14.4328 16.166L15.088 16.1599L15.0936 11.8689C15.1001 6.78716 15.0728 0.0631822 15.0455 0.0358591C15.0349 0.025236 14.7452 0.0128264 14.4018 0.0082803L13.7775 0V8.0861ZM15.6563 9.99087V19.9768L15.9404 19.9703L16.2245 19.9638L16.2303 9.98436L16.2362 0.00494071H15.9462H15.6563V9.99087ZM18.1361 0.0220577L17.9834 0.0300831L17.968 5.85672C17.9595 9.06136 17.9525 12.6935 17.9525 13.9281V16.1728L18.2598 16.1664L18.5672 16.1599L18.573 8.08241L18.5788 0.00494071L18.4338 0.00948645C18.3541 0.0119915 18.2201 0.0176275 18.1361 0.0220577ZM19.0195 8.08881V16.1727L19.3732 16.1663L19.7269 16.1599L19.7327 8.08241L19.7386 0.00494071H19.379H19.0195V8.08881ZM20.4575 8.08849V16.1721L21.2983 16.166L22.1391 16.1599L22.1449 8.08241L22.1508 0.00494071H21.3041H20.4575V8.08849ZM23.007 0.0218269L22.9006 0.030362L22.8852 5.85685C22.8767 9.06142 22.8697 12.6935 22.8697 13.9282V16.1731L23.1075 16.1665L23.3452 16.1599L23.351 8.08241L23.3569 0.00494071L23.2351 0.00911555C23.1681 0.0114118 23.0654 0.0171416 23.007 0.0218269ZM24.3542 8.08849V16.1721L25.195 16.166L26.0358 16.1599L26.0416 8.08241L26.0474 0.00494071H25.2008H24.3542V8.08849ZM26.7181 0.0218269L26.6117 0.030362L26.5963 5.89165C26.5878 9.11535 26.5808 12.7475 26.5808 13.963V16.1731L26.8186 16.1665L27.0563 16.1599L27.0622 8.08241L27.068 0.00494071L26.9462 0.00911555C26.8792 0.0114118 26.7765 0.0171416 26.7181 0.0218269ZM28.0653 8.0861V16.1722L28.7205 16.166L29.3758 16.1599L29.3813 11.9617C29.388 6.93565 29.3603 0.0628575 29.3333 0.0358591C29.3226 0.025236 29.033 0.0128264 28.6896 0.0082803L28.0653 0V8.0861ZM30.1528 8.08881V16.1727L30.5065 16.1663L30.8602 16.1599L30.866 8.08241L30.8719 0.00494071H30.5123H30.1528V8.08881ZM31.5908 8.08881V16.1727L31.9446 16.1663L32.2983 16.1599L32.3041 8.08241L32.3099 0.00494071H31.9504H31.5908V8.08881ZM33.0733 0.0218269L32.967 0.030362L32.9516 5.80852C32.9431 8.98651 32.9361 12.6186 32.9361 13.8799V16.1731L33.1739 16.1665L33.4116 16.1599L33.4174 8.08241L33.4233 0.00494071L33.3015 0.00911555C33.2345 0.0114118 33.1318 0.0171416 33.0733 0.0218269ZM33.9103 9.96724V19.9296L34.7511 19.9235L35.5919 19.9174L35.5977 9.96116L35.6035 0.00494071H34.7569H33.9103V9.96724ZM16.8392 10.0141V20L17.1233 19.9935L17.4074 19.987L17.4133 10.0076L17.4191 0.0281352H17.1291H16.8392V10.0141ZM1.11333 10.0141V19.9768L1.39747 19.9703L1.6816 19.9638L1.68754 18.0681L1.69347 16.1724L2.22101 16.1661L2.74854 16.1599L2.75436 8.1056L2.76021 0.0513296H1.93676H1.11333V10.0141Z" fill="black" fill-opacity="0.87"/>
</svg>
